<mxGraphModel background="#FFFFFF" grid="1" guides="1" style="default-style2"><root><mxCell id="0"/><mxCell id="2" parent="0" value="Layer 0"/><mxCell id="3" parent="2" style="shape=ellipse;perimeter=ellipsePerimeter;shadow=0;strokeWidth=0;strokeColor=none;fillColor=#1c4587;opacity=100.0;html=1;nl2Br=0;verticalAlign=middle;align=center;spacingLeft=7.6;spacingRight=6;whiteSpace=wrap;gliffyId=792;" value="&lt;div style='width: 73.8px;height:auto;word-break: break-word;'&gt;&lt;div align=&quot;center&quot;&gt;&lt;/div&gt;&lt;div align=&quot;center&quot;&gt;&lt;span style=&quot;font-weight: bold; font-size: 16px; color: #ffffff; line-height: 18.5px;&quot;&gt;A&lt;/span&gt;&lt;/div&gt;&lt;div align=&quot;center&quot;&gt;&lt;span style=&quot;font-weight: bold; font-size: 16px; color: #ffffff; line-height: 18.5px;&quot;&gt;(F1,F2)&lt;/span&gt;&lt;/div&gt;&lt;/div&gt;" vertex="1"><mxGeometry as="geometry" height="51.0" width="80.0" x="60.45000076293945" y="170.0"/></mxCell><mxCell id="4" parent="2" style="shape=ellipse;perimeter=ellipsePerimeter;shadow=0;strokeWidth=0;strokeColor=none;fillColor=#1c4587;opacity=100.0;html=1;nl2Br=0;verticalAlign=middle;align=center;spacingLeft=7.2;spacingRight=6;whiteSpace=wrap;gliffyId=1443;" value="&lt;div style='width: 54.6px;height:auto;word-break: break-word;'&gt;&lt;div align=&quot;center&quot;&gt;&lt;/div&gt;&lt;div align=&quot;center&quot;&gt;&lt;span style=&quot;font-weight: bold; font-size: 16px; color: #ffffff; line-height: 18.5px;&quot;&gt;B&lt;/span&gt;&lt;/div&gt;&lt;div align=&quot;center&quot;&gt;&lt;span style=&quot;font-weight: bold; font-size: 16px; color: #ffffff; line-height: 18.5px;&quot;&gt;(F1)&lt;/span&gt;&lt;/div&gt;&lt;/div&gt;" vertex="1"><mxGeometry as="geometry" height="51.0" width="60.0" x="343.20001220703125" y="170.0"/></mxCell><mxCell edge="1" id="5" parent="2" source="3" style="shape=filledEdge;strokeWidth=2;strokeColor=#000000;fillColor=none;startArrow=none;startFill=0;startSize=6;endArrow=none;endFill=0;endSize=6;rounded=1;gliffyId=907;edgeStyle=orthogonalEdgeStyle;" target="13"><mxGeometry as="geometry" height="100.0" relative="1" width="100.0"><Array as="points"><mxPoint x="140.45001220703125" y="195.5"/><mxPoint x="151.36663818359375" y="195.5"/><mxPoint x="162.2833251953125" y="195.5"/><mxPoint x="173.20001220703125" y="195.5"/></Array></mxGeometry></mxCell><mxCell edge="1" id="6" parent="2" source="13" style="shape=filledEdge;strokeWidth=2;strokeColor=#000000;fillColor=none;startArrow=none;startFill=0;startSize=6;endArrow=none;endFill=0;endSize=6;rounded=1;gliffyId=1445;edgeStyle=orthogonalEdgeStyle;" target="4"><mxGeometry as="geometry" height="100.0" relative="1" width="100.0"><Array as="points"><mxPoint x="283.20001220703125" y="195.5"/><mxPoint x="303.20001220703125" y="195.5"/><mxPoint x="323.20001220703125" y="195.5"/><mxPoint x="343.20001220703125" y="195.5"/></Array></mxGeometry></mxCell><mxCell id="7" parent="2" style="shape=rect;rounded=1;arcSize=15;absoluteArcSize=1;shadow=0;strokeWidth=1;fillColor=#ffe599;strokeColor=#000000;opacity=100.0;html=1;nl2Br=0;verticalAlign=middle;align=center;spacingLeft=6.9666667;spacingRight=6;whiteSpace=wrap;gliffyId=1204;" value="&lt;div style='width: 53.066666px;height:auto;word-break: break-word;'&gt;&lt;div align=&quot;center&quot;&gt;&lt;span style=&quot;font-size: 12px; font-family: Arial; line-height: 14px;&quot;&gt; A_sat&lt;/span&gt;&lt;/div&gt;&lt;/div&gt;" vertex="1"><mxGeometry as="geometry" height="30.0" width="58.0" x="69.0" y="90.0"/></mxCell><mxCell id="8" parent="2" style="shape=rect;rounded=1;arcSize=15;absoluteArcSize=1;shadow=0;strokeWidth=1;fillColor=#ffe599;strokeColor=#000000;opacity=100.0;html=1;nl2Br=0;verticalAlign=middle;align=center;spacingLeft=6.9666667;spacingRight=6;whiteSpace=wrap;gliffyId=1496;" value="&lt;div style='width: 53.066666px;height:auto;word-break: break-word;'&gt;&lt;div align=&quot;center&quot;&gt;&lt;span style=&quot;font-size: 12px; font-family: Arial; line-height: 14px;&quot;&gt; B_sat&lt;/span&gt;&lt;/div&gt;&lt;/div&gt;" vertex="1"><mxGeometry as="geometry" height="30.0" width="58.0" x="344.20001220703125" y="120.0"/></mxCell><mxCell edge="1" id="9" parent="2" source="3" style="shape=filledEdge;strokeWidth=2;strokeColor=#000000;fillColor=none;startArrow=none;startFill=0;startSize=6;endArrow=none;endFill=0;endSize=6;rounded=1;gliffyId=1258;exitX=0.5;exitY=0.0;exitPerimeter=0;entryX=0.5;entryY=1.0;entryPerimeter=0;edgeStyle=orthogonalEdgeStyle;" target="7"><mxGeometry as="geometry" height="100.0" relative="1" width="100.0"><Array as="points"><mxPoint x="98.0" y="170.05999755859375"/><mxPoint x="98.0" y="153.373291015625"/><mxPoint x="98.0" y="136.6866455078125"/><mxPoint x="98.0" y="120.0"/></Array></mxGeometry></mxCell><mxCell edge="1" id="10" parent="2" source="4" style="shape=filledEdge;strokeWidth=2;strokeColor=#000000;fillColor=none;startArrow=none;startFill=0;startSize=6;endArrow=none;endFill=0;endSize=6;rounded=1;gliffyId=1498;exitX=0.5;exitY=0.0;exitPerimeter=0;entryX=0.5;entryY=1.0;entryPerimeter=0;edgeStyle=orthogonalEdgeStyle;" target="8"><mxGeometry as="geometry" height="100.0" relative="1" width="100.0"><Array as="points"><mxPoint x="373.20001220703125" y="170.0"/><mxPoint x="373.20001220703125" y="163.3333740234375"/><mxPoint x="373.20001220703125" y="156.6666259765625"/><mxPoint x="373.20001220703125" y="150.0"/></Array></mxGeometry></mxCell><mxCell edge="1" id="11" parent="2" source="13" style="shape=filledEdge;strokeWidth=2;strokeColor=#000000;fillColor=none;startArrow=none;startFill=0;startSize=6;endArrow=none;endFill=0;endSize=6;rounded=1;gliffyId=1455;exitX=0.5;exitY=0.5;exitPerimeter=0;entryX=0.5;entryY=1.0;entryPerimeter=0;edgeStyle=orthogonalEdgeStyle;" target="14"><mxGeometry as="geometry" height="100.0" relative="1" width="100.0"><Array as="points"><mxPoint x="228.20001220703125" y="195.5"/><mxPoint x="228.20001220703125" y="150.25"/><mxPoint x="194.0" y="150.25"/><mxPoint x="194.0" y="105.0"/></Array></mxGeometry></mxCell><mxCell edge="1" id="12" parent="2" source="13" style="shape=filledEdge;strokeWidth=2;strokeColor=#000000;fillColor=none;startArrow=none;startFill=0;startSize=6;endArrow=none;endFill=0;endSize=6;rounded=1;gliffyId=1491;exitX=0.5;exitY=0.5;exitPerimeter=0;entryX=0.13611111044883728;entryY=1.0;entryPerimeter=0;edgeStyle=orthogonalEdgeStyle;" target="15"><mxGeometry as="geometry" height="100.0" relative="1" width="100.0"><Array as="points"><mxPoint x="228.20001220703125" y="195.5"/><mxPoint x="228.20001220703125" y="170.25"/><mxPoint x="251.25" y="170.25"/><mxPoint x="251.25" y="145.0"/></Array></mxGeometry></mxCell><mxCell id="13" parent="2" style="shape=hexagon;perimeter=hexagonPerimeter2;shadow=0;strokeWidth=2;fillColor=#a4c2f4;strokeColor=#000000;opacity=100.0;html=1;nl2Br=0;verticalAlign=middle;align=center;spacingLeft=8.2;spacingRight=6;whiteSpace=wrap;gliffyId=901;" value="&lt;div style='width: 102.6px;height:auto;word-break: break-word;'&gt;&lt;div align=&quot;center&quot;&gt;&lt;span style=&quot;font-family: Arial; font-size: 12px; line-height: 14px;&quot;&gt;A_B&lt;span style=&quot;text-decoration: none; line-height: normal;&quot;&gt;&lt;br&gt;&lt;/span&gt;&lt;/span&gt;&lt;/div&gt;&lt;/div&gt;" vertex="1"><mxGeometry as="geometry" height="29.0" width="110.0" x="173.1999969482422" y="181.0"/></mxCell><mxCell id="14" parent="2" style="shape=rect;rounded=1;arcSize=15;absoluteArcSize=1;shadow=0;strokeWidth=2;fillColor=#a4c2f4;strokeColor=#000000;opacity=100.0;html=1;nl2Br=0;verticalAlign=middle;align=center;spacingLeft=8.0;spacingRight=6;whiteSpace=wrap;gliffyId=1450;" value="&lt;div style='width: 83.0px;height:auto;word-break: break-word;'&gt;&lt;div align=&quot;center&quot;&gt;&lt;span style=&quot;font-family: Arial; font-size: 12px; line-height: 14px;&quot;&gt;  a_b_r1_esat&lt;/span&gt;&lt;/div&gt;&lt;/div&gt;" vertex="1"><mxGeometry as="geometry" height="29.0" width="90.0" x="149.0" y="76.0"/></mxCell><mxCell id="15" parent="2" style="shape=rect;rounded=1;arcSize=15;absoluteArcSize=1;shadow=0;strokeWidth=2;fillColor=#a4c2f4;strokeColor=#000000;opacity=100.0;html=1;nl2Br=0;verticalAlign=middle;align=center;spacingLeft=8.0;spacingRight=6;whiteSpace=wrap;gliffyId=1488;" value="&lt;div style='width: 83.0px;height:auto;word-break: break-word;'&gt;&lt;div align=&quot;center&quot;&gt;&lt;span style=&quot;font-family: Arial; font-size: 12px; line-height: 14px;&quot;&gt; a_b_r2_esat&lt;/span&gt;&lt;/div&gt;&lt;/div&gt;" vertex="1"><mxGeometry as="geometry" height="29.0" width="90.0" x="239.0" y="116.0"/></mxCell><mxCell id="16" parent="2" style="shape=rect;shadow=0;strokeWidth=2;fillColor=#FFFFFF;strokeColor=#333333;opacity=100.0;html=1;nl2Br=0;verticalAlign=middle;align=center;spacingLeft=1.16;spacingRight=0;whiteSpace=wrap;gliffyId=1460;" value="&lt;div style='width: 52.68px;height:auto;word-break: break-word;'&gt;&lt;div align=&quot;center&quot;&gt;&lt;span style=&quot;font-family: Arial; font-size: 12px; text-decoration: none; line-height: 0;&quot;&gt;&lt;span style=&quot;text-decoration: none; line-height: 14px;&quot;&gt;IDA_F1&lt;/span&gt;&lt;/span&gt;&lt;/div&gt;&lt;/div&gt;" vertex="1"><mxGeometry as="geometry" height="30.0" width="58.0" x="10.75" y="10.0"/></mxCell><mxCell id="17" parent="2" style="shape=rect;shadow=0;strokeWidth=2;fillColor=#FFFFFF;strokeColor=#333333;opacity=100.0;html=1;nl2Br=0;verticalAlign=middle;align=center;spacingLeft=1.7;spacingRight=0;whiteSpace=wrap;gliffyId=1463;" value="&lt;div style='width: 78.6px;height:auto;word-break: break-word;'&gt;&lt;div align=&quot;center&quot;&gt;&lt;span style=&quot;font-family: Arial; font-size: 12px; text-decoration: none; line-height: 0;&quot;&gt;&lt;span style=&quot;text-decoration: none; line-height: 14px;&quot;&gt;CONTENT_A&lt;/span&gt;&lt;/span&gt;&lt;/div&gt;&lt;/div&gt;" vertex="1"><mxGeometry as="geometry" height="30.0" width="85.0" x="127.0" y="10.0"/></mxCell><mxCell id="18" parent="2" style="shape=rect;shadow=0;strokeWidth=2;fillColor=#FFFFFF;strokeColor=#333333;opacity=100.0;html=1;nl2Br=0;verticalAlign=middle;align=center;spacingLeft=1.7;spacingRight=0;whiteSpace=wrap;gliffyId=1492;" value="&lt;div style='width: 78.6px;height:auto;word-break: break-word;'&gt;&lt;div align=&quot;center&quot;&gt;&lt;span style=&quot;font-family: Arial; font-size: 12px; text-decoration: none; color: #6aa84f; line-height: 0;&quot;&gt;&lt;span style=&quot;text-decoration: none; line-height: 14px;&quot;&gt;CONTENT_B&lt;/span&gt;&lt;/span&gt;&lt;/div&gt;&lt;/div&gt;" vertex="1"><mxGeometry as="geometry" height="30.0" width="85.0" x="410.0" y="10.0"/></mxCell><mxCell id="19" parent="2" style="shape=rect;shadow=0;strokeWidth=2;fillColor=#FFFFFF;strokeColor=#333333;opacity=100.0;html=1;nl2Br=0;verticalAlign=middle;align=center;spacingLeft=1.16;spacingRight=0;whiteSpace=wrap;gliffyId=1467;" value="&lt;div style='width: 52.68px;height:auto;word-break: break-word;'&gt;&lt;div align=&quot;center&quot;&gt;&lt;span style=&quot;font-family: Arial; font-size: 12px; text-decoration: none; line-height: 0;&quot;&gt;&lt;span style=&quot;text-decoration: none; line-height: 14px;&quot;&gt;IDA_F2&lt;/span&gt;&lt;/span&gt;&lt;/div&gt;&lt;/div&gt;" vertex="1"><mxGeometry as="geometry" height="30.0" width="58.0" x="69.0" y="10.0"/></mxCell><mxCell id="20" parent="2" style="shape=rect;shadow=0;strokeWidth=2;fillColor=#FFFFFF;strokeColor=#333333;opacity=100.0;html=1;nl2Br=0;verticalAlign=middle;align=center;spacingLeft=1.98;spacingRight=0;whiteSpace=wrap;gliffyId=1469;" value="&lt;div style='width: 92.04px;height:auto;word-break: break-word;'&gt;&lt;div align=&quot;center&quot;&gt;&lt;span style=&quot;font-family: Arial; font-size: 12px; text-decoration: none; color: #cc0000; line-height: 0;&quot;&gt;&lt;span style=&quot;text-decoration: none; line-height: 14px;&quot;&gt;IDB_F1_S1&lt;/span&gt;&lt;/span&gt;&lt;/div&gt;&lt;/div&gt;" vertex="1"><mxGeometry as="geometry" height="30.0" width="99.0" x="212.0" y="10.0"/></mxCell><mxCell id="21" parent="2" style="shape=rect;shadow=0;strokeWidth=2;fillColor=#FFFFFF;strokeColor=#333333;opacity=100.0;html=1;nl2Br=0;verticalAlign=middle;align=center;spacingLeft=1.98;spacingRight=0;whiteSpace=wrap;gliffyId=1483;" value="&lt;div style='width: 92.04px;height:auto;word-break: break-word;'&gt;&lt;div align=&quot;center&quot;&gt;&lt;span style=&quot;font-family: Arial; font-size: 12px; text-decoration: none; color: #38761d; line-height: 0;&quot;&gt;&lt;span style=&quot;text-decoration: none; line-height: 14px;&quot;&gt;IDB_F1_S2&lt;/span&gt;&lt;/span&gt;&lt;/div&gt;&lt;/div&gt;" vertex="1"><mxGeometry as="geometry" height="30.0" width="99.0" x="311.0" y="10.0"/></mxCell><mxCell edge="1" id="22" parent="2" source="16" style="shape=filledEdge;strokeWidth=2;strokeColor=#999999;fillColor=none;startArrow=none;startFill=0;startSize=6;endArrow=block;endFill=1;endSize=6;rounded=1;gliffyId=1474;edgeStyle=orthogonalEdgeStyle;" target="3"><mxGeometry as="geometry" height="132.0" relative="1" width="17.0"><Array as="points"><mxPoint x="27.73780632019043" y="40.0"/><mxPoint x="27.73780632019043" y="195.5"/><mxPoint x="60.45000076293945" y="195.5"/></Array></mxGeometry></mxCell><mxCell edge="1" id="23" parent="2" source="19" style="shape=filledEdge;strokeWidth=2;strokeColor=#999999;fillColor=none;startArrow=none;startFill=0;startSize=6;endArrow=block;endFill=1;endSize=6;rounded=1;gliffyId=1476;edgeStyle=orthogonalEdgeStyle;" target="3"><mxGeometry as="geometry" height="39.0" relative="1" width="46.0"><Array as="points"><mxPoint x="85.98779296875" y="40.0"/><mxPoint x="85.98779296875" y="60.0"/><mxPoint x="30.0" y="60.0"/><mxPoint x="30.0" y="195.5"/><mxPoint x="60.45001220703125" y="195.5"/></Array></mxGeometry></mxCell><mxCell edge="1" id="24" parent="2" source="17" style="shape=filledEdge;strokeWidth=2;strokeColor=#999999;fillColor=none;startArrow=none;startFill=0;startSize=6;endArrow=block;endFill=1;endSize=6;rounded=1;gliffyId=1480;exitX=0.2928932309150696;exitY=1.0;exitPerimeter=0;entryX=0.5;entryY=0.0;entryPerimeter=0;edgeStyle=orthogonalEdgeStyle;" target="7"><mxGeometry as="geometry" height="39.0" relative="1" width="46.0"><Array as="points"><mxPoint x="151.89593505859375" y="40.0"/><mxPoint x="151.89593505859375" y="65.0"/><mxPoint x="98.0" y="65.0"/><mxPoint x="98.0" y="90.0"/></Array></mxGeometry></mxCell><mxCell edge="1" id="25" parent="2" source="20" style="shape=filledEdge;strokeWidth=2;strokeColor=#cc0000;fillColor=none;startArrow=none;startFill=0;startSize=6;endArrow=block;endFill=1;endSize=6;rounded=1;gliffyId=1482;exitX=0.5;exitY=1.0;exitPerimeter=0;entryX=1.0;entryY=0.5;entryPerimeter=0;edgeStyle=orthogonalEdgeStyle;" target="4"><mxGeometry as="geometry" height="39.0" relative="1" width="46.0"><Array as="points"><mxPoint x="261.5" y="40.0"/><mxPoint x="261.5" y="60.0"/><mxPoint x="443.20001220703125" y="60.0"/><mxPoint x="443.20001220703125" y="195.5"/><mxPoint x="403.20001220703125" y="195.5"/></Array></mxGeometry></mxCell><mxCell edge="1" id="26" parent="2" source="21" style="shape=filledEdge;strokeWidth=2;strokeColor=#38761d;fillColor=none;startArrow=none;startFill=0;startSize=6;endArrow=block;endFill=1;endSize=6;rounded=1;gliffyId=1485;exitX=0.7071067690849304;exitY=1.0;exitPerimeter=0;entryX=1.0;entryY=0.5;entryPerimeter=0;edgeStyle=orthogonalEdgeStyle;" target="4"><mxGeometry as="geometry" height="39.0" relative="1" width="46.0"><Array as="points"><mxPoint x="381.0035705566406" y="40.0"/><mxPoint x="381.0035705566406" y="50.0"/><mxPoint x="443.20001220703125" y="50.0"/><mxPoint x="443.20001220703125" y="195.5"/><mxPoint x="403.20001220703125" y="195.5"/></Array></mxGeometry></mxCell><mxCell edge="1" id="27" parent="2" source="18" style="shape=filledEdge;strokeWidth=2;strokeColor=#38761d;fillColor=none;startArrow=none;startFill=0;startSize=6;endArrow=block;endFill=1;endSize=6;rounded=1;gliffyId=1495;exitX=0.7071067690849304;exitY=1.0;exitPerimeter=0;entryX=0.5;entryY=0.0;entryPerimeter=0;edgeStyle=orthogonalEdgeStyle;" target="8"><mxGeometry as="geometry" height="39.0" relative="1" width="46.0"><Array as="points"><mxPoint x="470.10406494140625" y="40.0"/><mxPoint x="470.10406494140625" y="80.0"/><mxPoint x="373.20001220703125" y="80.0"/><mxPoint x="373.20001220703125" y="120.0"/></Array></mxGeometry></mxCell><mxCell edge="1" id="28" parent="2" source="20" style="shape=filledEdge;strokeWidth=1;strokeColor=#cc0000;fillColor=none;startArrow=none;startFill=0;startSize=6;endArrow=block;endFill=1;endSize=6;rounded=0;dashed=1;fixDash=1;dashPattern=1.0 1.0;curved=1;edgeStyle=orthogonalEdgeStyle;gliffyId=1486;edgeStyle=orthogonalEdgeStyle;" target="14"><mxGeometry as="geometry" height="45.0" relative="1" width="18.0"><Array as="points"><mxPoint x="240.99642944335938" y="40.0"/><mxPoint x="240.99642944335938" y="58.0"/><mxPoint x="194.0" y="58.0"/><mxPoint x="194.0" y="76.0"/></Array></mxGeometry></mxCell><mxCell edge="1" id="29" parent="2" source="21" style="shape=filledEdge;strokeWidth=1;strokeColor=#38761d;fillColor=none;startArrow=none;startFill=0;startSize=6;endArrow=block;endFill=1;endSize=6;rounded=0;dashed=1;fixDash=1;dashPattern=1.0 1.0;curved=1;edgeStyle=orthogonalEdgeStyle;gliffyId=1490;edgeStyle=orthogonalEdgeStyle;" target="15"><mxGeometry as="geometry" height="45.0" relative="1" width="18.0"><Array as="points"><mxPoint x="339.9964294433594" y="40.0"/><mxPoint x="339.9964294433594" y="78.0"/><mxPoint x="284.0" y="78.0"/><mxPoint x="284.0" y="116.0"/></Array></mxGeometry></mxCell></root></mxGraphModel>